<svg width="166" height="48" viewBox="0 0 166 48" fill="none" xmlns="http://www.w3.org/2000/svg">
    <path d="M69.392 33L70.9943 28.3807H77.8125L79.4062 33H82.2017L75.9205 15.5455H72.8778L66.5966 33H69.392ZM71.7614 26.1648L74.3352 18.7159H74.4716L77.0455 26.1648H71.7614ZM87.0661 25.2273C87.0661 23.1392 88.3445 21.946 90.1172 21.946C91.8473 21.946 92.8956 23.0795 92.8956 24.9801V33H95.4439V24.6733C95.4439 21.4347 93.6626 19.7386 90.9865 19.7386C89.0178 19.7386 87.7308 20.6506 87.1257 22.0398H86.9638V19.9091H84.5178V33H87.0661V25.2273ZM104.376 33.2642C108.066 33.2642 110.478 30.5625 110.478 26.5142C110.478 22.4403 108.066 19.7386 104.376 19.7386C100.685 19.7386 98.2734 22.4403 98.2734 26.5142C98.2734 30.5625 100.685 33.2642 104.376 33.2642ZM104.384 31.125C101.972 31.125 100.847 29.0199 100.847 26.5057C100.847 24 101.972 21.8693 104.384 21.8693C106.779 21.8693 107.904 24 107.904 26.5057C107.904 29.0199 106.779 31.125 104.384 31.125ZM113.322 33H115.871V24.929C115.871 23.1648 117.107 21.9375 118.555 21.9375C119.97 21.9375 120.95 22.875 120.95 24.2983V33H123.49V24.6562C123.49 23.0795 124.453 21.9375 126.115 21.9375C127.462 21.9375 128.57 22.6875 128.57 24.4602V33H131.118V24.2216C131.118 21.2301 129.447 19.7386 127.078 19.7386C125.195 19.7386 123.78 20.642 123.149 22.0398H123.013C122.442 20.608 121.24 19.7386 119.493 19.7386C117.763 19.7386 116.476 20.5994 115.93 22.0398H115.768V19.9091H113.322V33ZM138.343 33.2898C140.508 33.2898 141.727 32.1903 142.212 31.2102H142.315V33H144.803V24.3068C144.803 20.4972 141.803 19.7386 139.724 19.7386C137.354 19.7386 135.173 20.6932 134.32 23.0795L136.715 23.625C137.09 22.696 138.045 21.8011 139.758 21.8011C141.403 21.8011 142.246 22.6619 142.246 24.1449V24.2045C142.246 25.1335 141.292 25.1165 138.94 25.3892C136.46 25.679 133.92 26.3267 133.92 29.3011C133.92 31.875 135.854 33.2898 138.343 33.2898ZM138.897 31.2443C137.457 31.2443 136.417 30.5966 136.417 29.3352C136.417 27.9716 137.627 27.4858 139.102 27.2898C139.928 27.179 141.888 26.9574 142.255 26.5909V28.2784C142.255 29.8295 141.019 31.2443 138.897 31.2443ZM150.746 15.5455H148.197V33H150.746V15.5455ZM155.785 37.9091C157.89 37.9091 159.219 36.8097 159.978 34.7472L165.39 19.9347L162.637 19.9091L159.322 30.0682H159.185L155.87 19.9091H153.143L157.933 33.1705L157.617 34.0398C156.969 35.7784 156.058 35.9233 154.66 35.5398L154.046 37.6278C154.353 37.7642 155.018 37.9091 155.785 37.9091Z" fill="#E10909"/>
    <path fill-rule="evenodd" clip-rule="evenodd" d="M48 24C48 10.7452 37.2548 0 24 0C10.7452 0 0 10.7452 0 24C0 37.2548 10.7452 48 24 48C37.2548 48 48 37.2548 48 24ZM45 24C45 12.402 35.598 3 24 3C12.402 3 3 12.402 3 24C3 35.598 12.402 45 24 45C35.598 45 45 35.598 45 24Z" fill="#E10909"/>
    <path fill-rule="evenodd" clip-rule="evenodd" d="M23.25 37.5094C23.25 37.9236 23.5858 38.2594 24 38.2594C24.4142 38.2594 24.75 37.9236 24.75 37.5094C24.75 37.0952 24.4142 36.7594 24 36.7594C23.5858 36.7594 23.25 37.0952 23.25 37.5094ZM28.875 37.1718C28.4937 37.0099 28.3158 36.5696 28.4777 36.1884C28.6395 35.8071 29.0798 35.6292 29.4611 35.791C29.8424 35.9529 30.0203 36.3932 29.8584 36.7745C29.6966 37.1557 29.2563 37.3336 28.875 37.1718ZM33.0191 33.0237C32.7262 33.3166 32.7262 33.7915 33.0191 34.0843C33.312 34.3772 33.7868 34.3772 34.0797 34.0843C34.3726 33.7915 34.3726 33.3166 34.0797 33.0237C33.7868 32.7308 33.312 32.7308 33.0191 33.0237ZM35.7815 29.4537C35.6263 29.0696 35.8118 28.6325 36.1959 28.4773C36.5799 28.3222 37.0171 28.5077 37.1722 28.8918C37.3274 29.2758 37.1419 29.7129 36.7578 29.8681C36.3737 30.0233 35.9366 29.8377 35.7815 29.4537ZM37.5048 23.2547C37.0906 23.2547 36.7548 23.5905 36.7548 24.0047C36.7548 24.4189 37.0906 24.7547 37.5048 24.7547C37.919 24.7547 38.2548 24.4189 38.2548 24.0047C38.2548 23.5905 37.919 23.2547 37.5048 23.2547ZM35.7864 18.5436C35.9482 18.1623 36.3885 17.9844 36.7698 18.1463C37.1511 18.3081 37.329 18.7484 37.1671 19.1297C37.0053 19.511 36.565 19.6889 36.1837 19.527C35.8024 19.3652 35.6245 18.9249 35.7864 18.5436ZM28.8872 10.8326C29.2713 10.6774 29.7084 10.863 29.8636 11.247C30.0187 11.6311 29.8332 12.0682 29.4491 12.2234C29.0651 12.3785 28.628 12.193 28.4728 11.8089C28.3176 11.4249 28.5032 10.9878 28.8872 10.8326ZM24 9.75001C24.4142 9.75001 24.75 10.0858 24.75 10.5C24.75 10.9142 24.4142 11.25 24 11.25C23.5858 11.25 23.25 10.9142 23.25 10.5C23.25 10.0858 23.5858 9.75001 24 9.75001ZM19.1129 37.1768C18.7289 37.332 18.2917 37.1464 18.1366 36.7624C17.9814 36.3783 18.167 35.9412 18.551 35.786C18.9351 35.6309 19.3722 35.8164 19.5274 36.2005C19.6825 36.5845 19.497 37.0216 19.1129 37.1768ZM13.9205 34.0843C14.2134 34.3772 14.6883 34.3772 14.9811 34.0843C15.274 33.7914 15.274 33.3165 14.9811 33.0236C14.6883 32.7307 14.2134 32.7307 13.9205 33.0236C13.6276 33.3165 13.6276 33.7914 13.9205 34.0843ZM12.2137 29.4658C12.0519 29.8471 11.6116 30.025 11.2303 29.8631C10.849 29.7013 10.6711 29.261 10.833 28.8797C10.9948 28.4984 11.4351 28.3205 11.8164 28.4824C12.1977 28.6442 12.3756 29.0845 12.2137 29.4658ZM10.4954 24.7547C10.9096 24.7547 11.2454 24.4189 11.2454 24.0047C11.2454 23.5905 10.9096 23.2547 10.4954 23.2547C10.0811 23.2547 9.74536 23.5905 9.74536 24.0047C9.74536 24.4189 10.0811 24.7547 10.4954 24.7547ZM12.2187 18.5557C12.3739 18.9397 12.1883 19.3768 11.8043 19.532C11.4202 19.6872 10.9831 19.5016 10.8279 19.1176C10.6728 18.7335 10.8583 18.2964 11.2424 18.1412C11.6264 17.9861 12.0635 18.1716 12.2187 18.5557ZM14.9811 14.9857C15.2739 14.6928 15.2739 14.218 14.9811 13.9251C14.6882 13.6322 14.2133 13.6322 13.9204 13.9251C13.6275 14.218 13.6275 14.6928 13.9204 14.9857C14.2133 15.2786 14.6882 15.2786 14.9811 14.9857ZM19.1251 10.8376C19.5064 10.9995 19.6843 11.4398 19.5224 11.821C19.3606 12.2023 18.9203 12.3802 18.539 12.2184C18.1577 12.0565 17.9798 11.6162 18.1417 11.2349C18.3035 10.8537 18.7438 10.6758 19.1251 10.8376ZM35.8001 14.45C35.8001 13.2074 34.7927 12.2 33.5501 12.2C32.3074 12.2 31.3001 13.2074 31.3001 14.45C31.3001 15.6927 32.3074 16.7 33.5501 16.7C34.7927 16.7 35.8001 15.6927 35.8001 14.45ZM24 18C27.3137 18 30 20.6863 30 24C30 27.3137 27.3137 30 24 30C20.6863 30 18 27.3137 18 24C18 20.6863 20.6863 18 24 18ZM28.5 24C28.5 21.5147 26.4853 19.5 24 19.5C21.5147 19.5 19.5 21.5147 19.5 24C19.5 26.4853 21.5147 28.5 24 28.5C26.4853 28.5 28.5 26.4853 28.5 24Z" fill="#E10909"/>
</svg>
